# AST/ASF file generated using VICON BodyLanguage
# -----------------------------------------------
:version 1.10
:name VICON
:units
  mass 1.0
  length 0.45
  angle deg
:documentation
   .ast/.asf automatically generated from VICON data using
   VICON BodyBuilder and BodyLanguage model FoxedUp or BRILLIANT.MOD
:root
   order TX TY TZ RX RY RZ
   axis XYZ
   position 0 0 0  
   orientation 0 0 0 
:bonedata
  begin
     id 1 
     name lhipjoint
     direction 0.646657 -0.683706 0.338203 
     length 2.4948 
     axis 0 0 0  XYZ
  end
  begin
     id 2 
     name lfemur
     direction 0.34202 -0.939693 0  
     length 6.79491  
     axis 0 0 20  XYZ
    dof rx ry rz
    limits (-160.0 20.0)
           (-70.0 70.0)
           (-60.0 70.0)
  end
  begin
     id 3 
     name ltibia
     direction 0.34202 -0.939693 0   
     length 7.56807   
     axis 0 0 20   XYZ
    dof rx
    limits (-10.0 170.0)
  end
  begin
     id 4 
     name lfoot
     direction 0.0679796 -0.186772 0.980048   
     length 2.53018   
     axis -90 7.62852e-016 20   XYZ
    dof rx rz
    limits (-45.0 90.0)
           (-70.0 20.0)
  end
  begin
     id 5 
     name ltoes
     direction 1.53625e-011 -4.21881e-011 1   
     length 1.26912   
     axis -90 7.62852e-016 20   XYZ
    dof rx
    limits (-90.0 20.0)
  end
  begin
     id 6 
     name rhipjoint
     direction -0.618868 -0.704065 0.348274   
     length 2.42265  
     axis 0 0 0  XYZ 
  end
  begin
     id 7 
     name rfemur
     direction -0.34202 -0.939693 0   
     length 6.73814   
     axis 0 0 -20   XYZ
    dof rx ry rz
    limits (-160.0 20.0)
           (-70.0 70.0)
           (-70.0 60.0)
  end
  begin
     id 8 
     name rtibia
     direction -0.34202 -0.939693 0   
     length 7.66799   
     axis 0 0 -20   XYZ
    dof rx
    limits (-10.0 170.0)
 end
 begin
     id 9 
     name rfoot
     direction -0.0727352 -0.199838 0.977125   
     length 2.57224  
     axis -90 -7.62852e-016 -20   XYZ
    dof rx rz
    limits (-45.0 90.0)
           (-20.0 70.0)
  end
  begin
     id 10 
     name rtoes
     direction -1.53501e-011 -4.21858e-011 1   
     length 1.28858   
     axis -90 -7.62852e-016 -20   XYZ
    dof rx
    limits (-90.0 20.0)
  end
  begin
     id 11 
     name lowerback
     direction -0.0172471 0.995767 -0.0902851   
     length 2.20206   
     axis 0 0 0   XYZ
    dof rx ry rz
    limits (-20.0 45.0)
           (-30.0 30.0)
           (-30.0 30.0)
  end
  begin
     id 12 
     name upperback
     direction -0.000110737 0.999714 0.0239043   
     length 2.19523   
     axis 0 0 0   XYZ
    dof rx ry rz
    limits (-20.0 45.0)
           (-30.0 30.0)
           (-30.0 30.0)
  end
  begin
     id 13 
     name thorax
     direction 0.00704869 0.997783 0.0661741   
     length 2.21977   
     axis 0 0 0   XYZ
    dof rx ry rz
    limits (-20.0 45.0)
           (-30.0 30.0)
           (-30.0 30.0)
  end
  begin
     id 14 
     name lowerneck
     direction -0.00407501 0.995527 0.0943846   
     length 1.83142   
     axis 0 0 0   XYZ
    dof rx ry rz
    limits (-20.0 45.0)
           (-30.0 30.0)
           (-30.0 30.0)
  end
  begin
     id 15 
     name upperneck
     direction 0.0640586 0.986486 -0.150807   
     length 1.84616   
     axis 0 0 0   XYZ
    dof rx ry rz
    limits (-20.0 45.0)
           (-30.0 30.0)
           (-30.0 30.0)
  end
  begin
     id 16
     name head
     direction 0.0188017 0.99791 -0.0618239  
     length 1.85932  
     axis 0 0 0   XYZ
    dof rx ry rz
    limits (-20.0 45.0)
           (-30.0 30.0)
           (-30.0 30.0)
  end
  begin
     id 17 
     name lclavicle
     direction 0.976074 0.206905 0.066852  
     length 3.81043  
     axis 0 0 0   XYZ
    dof ry rz
    limits (-20.0 10.0)
           (0.0 20.0)
  end
  begin
     id 18 
     name lhumerus
     direction 1 -4.48971e-011 1.86916e-027   
     length 5.37587   
     axis 180 -30 -90   XYZ
    dof rx ry rz
    limits (-60.0 90.0)
           (-90.0 90.0)
           (-90.0 90.0)
  end
  begin
     id 19
     name lradius
     direction 1 -4.48968e-011 1.69187e-027   
     length 3.35977   
     axis 180 -30 -90   XYZ
    dof rx
    limits (-10.0 170.0)
  end
  begin
     id 20
     name lwrist
     direction 1 -4.48968e-011 5.8978e-027   
     length 1.67988   
     axis -3.27506e-015 90 90   XYZ
    dof ry
    limits (-180.0 0.0)
 end
  begin
     id 21 
     name lhand
     direction 1 -4.49028e-011 1.18071e-026   
     length 0.561859   
     axis -7.52654e-015 90 90   XYZ
    dof rx rz
    limits (-90.0 90.0)
           (-45.0 45.0)
  end
  begin
     id 22 
     name lfingers
     direction 1 -4.48927e-011 2.35758e-026   
     length 0.452985   
     axis -1.50534e-014 90 90   XYZ
    dof rx
    limits (0.0 90.0)
  end
  begin
     id 23
     name lthumb
     direction 0.707107 -6.34898e-011 0.707107   
     length 0.650399   
     axis -90 45 5.69224e-014   XYZ
    dof rx rz
    limits (-45.0 45.0)
           (-45.0 45.0)
  end
  begin
     id 24 
     name rclavicle
     direction -0.988403 0.151789 0.00439714   
     length 3.6942  
     axis 0 0 0   XYZ 
    dof ry rz
    limits (-10.0 20.0)
           (-20.0 0.0)
  end
  begin
     id 25 
     name rhumerus
     direction -1 -4.48978e-011 1.62495e-027  
     length 5.22819   
     axis 180 30 90   XYZ
    dof rx ry rz
    limits (-90.0 60.0)
           (-90.0 90.0)
           (-90.0 90.0)
  end
  begin
     id 26 
     name rradius
     direction -1 -4.48961e-011 3.47796e-027   
     length 3.40764   
     axis 180 30 90   XYZ
    dof rx
    limits (-10.0 170.0)
  end
  begin
     id 27 
     name rwrist
     direction -1 -4.48949e-011 5.89602e-027   
     length 1.70382   
     axis -3.27506e-015 -90 -90   XYZ
    dof ry
    limits (-180.0 0.0)
  end
  begin
     id 28
     name rhand
     direction -1 -4.48977e-011 1.17973e-026   
     length 0.583255   
     axis -7.52654e-015 -90 -90   XYZ
    dof rx rz
    limits (-90.0 90.0)
           (-45.0 45.0)
  end
  begin
     id 29
     name rfingers
     direction -1 -4.49099e-011 2.36408e-026   
     length 0.470235   
     axis -1.50534e-014 -90 -90   XYZ
    dof rx
    limits (0.0 90.0)
  end
  begin
     id 30
     name rthumb
     direction -0.707107 -6.35011e-011 0.707107   
     length 0.675167   
     axis -90 -45 -5.69224e-014   XYZ
    dof rx rz
    limits (-45.0 45.0)
           (-45.0 45.0)
  end
:hierarchy
  begin
    root lhipjoint rhipjoint lowerback
    lhipjoint lfemur
    lfemur ltibia
    ltibia lfoot
    lfoot ltoes
    rhipjoint rfemur
    rfemur rtibia
    rtibia rfoot
    rfoot rtoes
    lowerback upperback
    upperback thorax
    thorax lowerneck lclavicle rclavicle
    lowerneck upperneck
    upperneck head
    lclavicle lhumerus
    lhumerus lradius
    lradius lwrist
    lwrist lhand lthumb
    lhand lfingers
    rclavicle rhumerus
    rhumerus rradius
    rradius rwrist
    rwrist rhand rthumb
    rhand rfingers
  end

#!OML:ASF G:\JayActor3\Patient Classification 1\Patient 1\Session 2\male.ASF
:FULLY-SPECIFIED
:DEGREES
432
root -10.0445 16.8349 -1.87705 -169.092 -59.5233 170.339
lowerback 11.143 2.08091 -2.28768
upperback 4.41996 2.21571 -1.6718
thorax -1.65644 0.98637 -0.716644
lowerneck -7.38526 1.95255 0.252595
upperneck -0.440603 2.53793 -0.446604
head 1.10416 1.23829 -0.101472
rclavicle 3.44891e-014 -1.23246e-014
rhumerus -39.3723 26.7064 -92.7232
rradius 60.6373
rwrist -16.6443
rhand -23.7705 12.6294
rfingers 7.12502
rthumb 2.69904 -17.3332
lclavicle 3.44891e-014 -1.23246e-014
lhumerus -46.4392 -21.8019 83.2422
lradius 85.4721
lwrist 21.7084
lhand -27.6236 22.1542
lfingers 7.12502
lthumb -1.0224 52.1315
rfemur -26.0676 0.494915 20.2312
rtibia 50.5606
rfoot -22.0862 -4.64923
rtoes 8.46088
lfemur -25.2208 10.5822 -19.0543
ltibia 57.9794
lfoot -4.91282 4.54921
ltoes -23.3567
433
root -10.311 16.8159 -2.00837 -170.066 -60.2457 171.333
lowerback 11.2269 2.10851 -1.78309
upperback 4.54465 2.2985 -1.68189
thorax -1.55265 1.02897 -1.02039
lowerneck -7.61754 1.74355 -0.00836009
upperneck -0.663006 2.26793 -0.130137
head 1.06526 1.10625 0.0320624
rclavicle 6.95746e-015 2.5842e-015
rhumerus -38.3082 26.7249 -92.9304
rradius 60.367
rwrist -16.5626
rhand -23.9173 12.6647
rfingers 7.12502
rthumb 2.55718 -17.2997
lclavicle 6.95746e-015 2.5842e-015
lhumerus -47.5124 -21.1889 83.7395
lradius 83.8537
lwrist 21.1097
lhand -27.7824 22.5875
lfingers 7.12502
lthumb -1.17574 52.564
rfemur -24.6157 -0.0319323 21.1489
rtibia 50.5157
rfoot -22.6384 -5.66398
rtoes 9.65467
lfemur -27.2716 10.8997 -19.1242
ltibia 57.7461
lfoot -6.20343 4.02612
ltoes -23.9791
434
root -10.5768 16.7909 -2.14036 -171.093 -60.9457 172.301
lowerback 11.4292 2.15315 -1.31862
upperback 4.66854 2.39353 -1.70946
thorax -1.51284 1.07726 -1.32577
lowerneck -7.87554 1.52065 -0.245063
upperneck -0.865829 1.97875 0.190588
head 1.03939 0.964734 0.162484
rclavicle -4.99446e-015 7.45443e-015
rhumerus -37.1344 26.7383 -93.1414
rradius 60.0977
rwrist -16.4729
rhand -24.0529 12.7141
rfingers 7.12502
rthumb 2.42623 -17.2519
lclavicle -4.99446e-015 7.45443e-015
lhumerus -48.5904 -20.5299 84.139
lradius 82.0496
lwrist 20.432
lhand -27.8811 22.9958
lfingers 7.12502
lthumb -1.27105 52.9718
rfemur -22.9496 -0.544702 22.0222
rtibia 50.2544
rfoot -23.4057 -6.5173
rtoes 10.6951
lfemur -29.2396 11.2269 -19.3299
ltibia 57.1509
lfoot -7.32931 3.5612
ltoes -24.571
435
root -10.842 16.7632 -2.27744 -172.186 -61.643 173.259
lowerback 11.7291 2.21276 -0.927902
upperback 4.79214 2.49726 -1.74047
thorax -1.52694 1.12866 -1.59875
lowerneck -8.15496 1.28522 -0.462725
upperneck -1.04373 1.67275 0.513316
head 1.02748 0.814993 0.290098
rclavicle -5.42993e-014 2.87989e-014
rhumerus -35.8892 26.7557 -93.3594
rradius 59.8492
rwrist -16.3781
rhand -24.1811 12.7446
rfingers 7.12502
rthumb 2.30241 -17.2228
lclavicle -5.42993e-014 2.87989e-014
lhumerus -49.6664 -19.8491 84.4263
lradius 80.0877
lwrist 19.7498
lhand -27.8793 23.4023
lfingers 7.12502
lthumb -1.26935 53.3783
rfemur -21.0461 -1.00741 22.8714
rtibia 49.6679
rfoot -24.3631 -7.26707
rtoes 11.9074
lfemur -31.0628 11.5915 -19.6474
ltibia 56.2024
lfoot -8.2375 3.21735
ltoes -25.3299
436
root -11.1062 16.7337 -2.42232 -173.327 -62.3548 174.236
lowerback 12.0635 2.28857 -0.629357
upperback 4.90441 2.61319 -1.76365
thorax -1.57364 1.1851 -1.81595
lowerneck -8.44831 1.0306 -0.667152
upperneck -1.20078 1.34128 0.846262
head 1.02697 0.652927 0.418057
rclavicle 1.86609e-014 1.36664e-014
rhumerus -34.612 26.7717 -93.5777
rradius 59.648
rwrist -16.2887
rhand -24.2786 12.7612
rfingers 7.12502
rthumb 2.20827 -17.2071
lclavicle 1.86609e-014 1.36664e-014
lhumerus -50.7353 -19.1773 84.5993
lradius 78.0058
lwrist 19.1133
lhand -27.7992 23.8157
lfingers 7.12502
lthumb -1.19195 53.7922
rfemur -18.9565 -1.41205 23.7268
rtibia 48.7284
rfoot -25.4687 -8.01024
rtoes 13.2903
lfemur -32.7712 12.0013 -20.0571
ltibia 54.9472
lfoot -8.87948 3.03825
ltoes -25.9763
437
root -11.3694 16.7005 -2.57536 -174.506 -63.0636 175.28
lowerback 12.3606 2.38699 -0.418187
upperback 4.9958 2.75309 -1.77566
thorax -1.62417 1.25315 -1.97559
lowerneck -8.73843 0.754084 -0.882312
upperneck -1.35594 0.98216 1.22479
head 1.02891 0.478066 0.56107
rclavicle -2.78795e-014 2.9122e-014
rhumerus -33.3332 26.7983 -93.7966
rradius 59.5153
rwrist -16.2127
rhand -24.3631 12.7496
rfingers 7.12502
rthumb 2.12668 -17.2195
lclavicle -2.78795e-014 2.9122e-014
lhumerus -51.7981 -18.5397 84.6608
lradius 75.8517
lwrist 18.5704
lhand -27.6527 24.2553
lfingers 7.12502
lthumb -1.05051 54.2325
rfemur -16.7609 -1.75347 24.6111
rtibia 47.4865
rfoot -26.6796 -8.73166
rtoes 14.7305
lfemur -34.4272 12.4882 -20.5582
ltibia 53.4581
lfoot -9.1668 3.07824
ltoes -26.5559
